<svg width="24" height="24" viewBox="0 0 24 24" fill="none" xmlns="http://www.w3.org/2000/svg">
<path d="M12.0002 14.3147C13.2554 14.3147 14.273 13.3003 14.273 12.049C14.273 10.7978 13.2554 9.78345 12.0002 9.78345C10.745 9.78345 9.72755 10.7978 9.72755 12.049C9.72755 13.3003 10.745 14.3147 12.0002 14.3147Z" stroke="black" stroke-width="2"/>
<path d="M8 7.5C5.33335 9.9853 5.33335 14.0147 8 16.5" stroke="black" stroke-width="2"/>
<path d="M16 16.5C18.6667 14.0147 18.6667 9.9853 16 7.5" stroke="black" stroke-width="2"/>
<path d="M5 5C1 8.866 1 15.134 5 19" stroke="black" stroke-width="2"/>
<path d="M19.0713 19.0979C22.9766 15.2049 22.9766 8.89305 19.0713 5" stroke="black" stroke-width="2"/>
</svg>
