<svg width="139" height="102" viewBox="0 0 139 102" fill="none" xmlns="http://www.w3.org/2000/svg">
<rect x="2.8203" y="37.9185" width="48.1741" height="70.1966" rx="4.12921" transform="rotate(-30 2.8203 37.9185)" stroke="#3C7B1E" stroke-width="4.12921"/>
<path d="M92.1615 17.1449C93.3455 15.2715 95.7973 14.6668 97.7167 15.7749L132.495 35.8543C134.47 36.9946 135.147 39.52 134.007 41.4949L103.061 95.0941C101.915 97.0796 99.3702 97.7511 97.3934 96.5897L73.4636 82.5306C71.7152 81.5034 71.739 78.967 73.5065 77.9729C76.648 76.2059 77.8499 72.2844 76.238 69.0605L69.8208 56.2259C69.1742 54.9327 69.2511 53.3955 70.0235 52.1733L92.1615 17.1449Z" stroke="#3C7B1E" stroke-width="4.12921"/>
<path d="M47.4859 6.19381C47.4859 3.91331 49.3346 2.06461 51.6151 2.06461H91.5308C93.8113 2.06461 95.66 3.91331 95.66 6.19382V14.3641C95.66 15.1515 95.4349 15.9225 95.0112 16.5862L72.944 51.1493C71.272 53.768 67.4157 53.6717 65.8766 50.9727L48.0282 19.6732C47.6728 19.0501 47.4859 18.3451 47.4859 17.6277V6.19381Z" stroke="#3C7B1E" stroke-width="4.12921"/>
</svg>
