<svg width="26" height="26" viewBox="0 0 26 26" fill="none" xmlns="http://www.w3.org/2000/svg">
<g clip-path="url(#clip0_22_310)">
<path d="M13 5.62165C15.4031 5.62165 15.6877 5.6308 16.6367 5.6741C17.5142 5.71415 17.9908 5.86077 18.3079 5.98398C18.728 6.14725 19.0278 6.34231 19.3428 6.65723C19.6577 6.97215 19.8528 7.272 20.016 7.69206C20.1392 8.00923 20.2859 8.48577 20.3259 9.36323C20.3692 10.3123 20.3783 10.5969 20.3783 13C20.3783 15.4031 20.3692 15.6878 20.3259 16.6368C20.2859 17.5143 20.1392 17.9908 20.016 18.308C19.8528 18.728 19.6577 19.0279 19.3428 19.3428C19.0278 19.6577 18.728 19.8528 18.3079 20.016C17.9908 20.1393 17.5142 20.2859 16.6367 20.3259C15.6879 20.3692 15.4032 20.3784 13 20.3784C10.5967 20.3784 10.3121 20.3692 9.36323 20.3259C8.48574 20.2859 8.00919 20.1393 7.69206 20.016C7.27196 19.8528 6.97212 19.6577 6.6572 19.3428C6.34228 19.0279 6.14721 18.728 5.98398 18.308C5.86073 17.9908 5.71411 17.5143 5.67406 16.6368C5.63076 15.6878 5.62162 15.4031 5.62162 13C5.62162 10.5969 5.63076 10.3123 5.67406 9.36326C5.71411 8.48577 5.86073 8.00923 5.98398 7.69206C6.14721 7.272 6.34228 6.97215 6.6572 6.65723C6.97212 6.34231 7.27196 6.14725 7.69206 5.98398C8.00919 5.86077 8.48574 5.71415 9.36319 5.6741C10.3122 5.6308 10.5969 5.62165 13 5.62165ZM13 4C10.5557 4 10.2493 4.01036 9.28931 4.05416C8.33133 4.09789 7.67712 4.25001 7.10462 4.47251C6.51279 4.70251 6.01088 5.01025 5.51055 5.51058C5.01021 6.01092 4.70247 6.51283 4.47247 7.10466C4.24997 7.67716 4.09785 8.33137 4.05412 9.28935C4.01032 10.2493 4 10.5557 4 13C4 15.4443 4.01032 15.7508 4.05412 16.7107C4.09785 17.6687 4.24997 18.3229 4.47247 18.8954C4.70247 19.4872 5.01021 19.9891 5.51055 20.4895C6.01088 20.9898 6.51279 21.2975 7.10462 21.5275C7.67712 21.75 8.33133 21.9021 9.28931 21.9459C10.2493 21.9897 10.5557 22 13 22C15.4443 22 15.7507 21.9897 16.7107 21.9459C17.6686 21.9021 18.3228 21.75 18.8953 21.5275C19.4872 21.2975 19.9891 20.9898 20.4894 20.4895C20.9898 19.9891 21.2975 19.4872 21.5275 18.8954C21.75 18.3229 21.9021 17.6687 21.9458 16.7107C21.9896 15.7508 22 15.4443 22 13C22 10.5557 21.9896 10.2493 21.9458 9.28935C21.9021 8.33137 21.75 7.67716 21.5275 7.10466C21.2975 6.51283 20.9898 6.01092 20.4894 5.51058C19.9891 5.01025 19.4872 4.70251 18.8953 4.47251C18.3228 4.25001 17.6686 4.09789 16.7107 4.05416C15.7507 4.01036 15.4443 4 13 4ZM13 8.37838C10.4475 8.37838 8.37835 10.4476 8.37835 13C8.37835 15.5525 10.4475 17.6217 13 17.6217C15.5524 17.6217 17.6216 15.5525 17.6216 13C17.6216 10.4476 15.5524 8.37838 13 8.37838ZM13 16C11.3431 16 9.99996 14.6569 9.99996 13C9.99996 11.3432 11.3431 10 13 10C14.6568 10 16 11.3432 16 13C16 14.6569 14.6568 16 13 16ZM18.8842 8.19579C18.8842 8.79226 18.4007 9.27581 17.8042 9.27581C17.2077 9.27581 16.7242 8.79226 16.7242 8.19579C16.7242 7.59931 17.2077 7.1158 17.8042 7.1158C18.4007 7.1158 18.8842 7.59931 18.8842 8.19579Z" fill="black"/>
</g>
<defs>
<clipPath id="clip0_22_310">
<rect width="18" height="18" fill="white" transform="translate(4 4)"/>
</clipPath>
</defs>
</svg>
