<svg width="34" height="34" viewBox="0 0 34 34" fill="none" xmlns="http://www.w3.org/2000/svg">
<g clip-path="url(#clip0_101_80)">
<path d="M17 7.35134C20.1425 7.35134 20.5147 7.3633 21.7557 7.41992C22.9032 7.47229 23.5264 7.66402 23.9412 7.82515C24.4905 8.03865 24.8826 8.29373 25.2944 8.70555C25.7062 9.11737 25.9613 9.50948 26.1747 10.0588C26.3359 10.4735 26.5277 11.0967 26.58 12.2442C26.6366 13.4852 26.6486 13.8574 26.6486 17C26.6486 20.1425 26.6366 20.5147 26.58 21.7557C26.5277 22.9032 26.3359 23.5264 26.1747 23.9411C25.9613 24.4905 25.7062 24.8826 25.2944 25.2944C24.8826 25.7062 24.4905 25.9613 23.9412 26.1747C23.5264 26.3359 22.9032 26.5276 21.7557 26.58C20.5149 26.6366 20.1427 26.6486 17 26.6486C13.8573 26.6486 13.4851 26.6366 12.2442 26.58C11.0967 26.5276 10.4736 26.3359 10.0588 26.1747C9.50949 25.9613 9.11739 25.7062 8.70557 25.2944C8.29375 24.8826 8.03867 24.4905 7.82521 23.9411C7.66404 23.5264 7.47231 22.9032 7.41993 21.7558C7.36331 20.5147 7.35135 20.1425 7.35135 17C7.35135 13.8574 7.36331 13.4852 7.41993 12.2442C7.47231 11.0967 7.66404 10.4735 7.82521 10.0588C8.03867 9.50948 8.29375 9.11737 8.70557 8.70555C9.11739 8.29373 9.50949 8.03865 10.0588 7.82515C10.4736 7.66402 11.0967 7.47229 12.2442 7.41992C13.4852 7.3633 13.8574 7.35134 17 7.35134ZM17 5.23071C13.8036 5.23071 13.4029 5.24426 12.1476 5.30154C10.8948 5.35872 10.0393 5.55765 9.29067 5.84861C8.51673 6.14938 7.86039 6.55181 7.20611 7.20609C6.55182 7.86038 6.14939 8.51672 5.84862 9.29065C5.55766 10.0393 5.35873 10.8948 5.30155 12.1476C5.24428 13.4028 5.23077 13.8036 5.23077 17C5.23077 20.1963 5.24428 20.5971 5.30155 21.8524C5.35873 23.1051 5.55766 23.9606 5.84862 24.7093C6.14939 25.4832 6.55182 26.1396 7.20611 26.7938C7.86039 27.4481 8.51673 27.8506 9.29067 28.1513C10.0393 28.4423 10.8948 28.6412 12.1476 28.6984C13.4029 28.7557 13.8036 28.7692 17 28.7692C20.1963 28.7692 20.5971 28.7557 21.8524 28.6984C23.1051 28.6412 23.9606 28.4423 24.7093 28.1513C25.4832 27.8506 26.1396 27.4481 26.7939 26.7938C27.4481 26.1396 27.8506 25.4832 28.1513 24.7093C28.4423 23.9606 28.6412 23.1051 28.6984 21.8524C28.7557 20.5971 28.7692 20.1963 28.7692 17C28.7692 13.8036 28.7557 13.4028 28.6984 12.1476C28.6412 10.8948 28.4423 10.0393 28.1513 9.29065C27.8506 8.51672 27.4481 7.86038 26.7939 7.20609C26.1396 6.55181 25.4832 6.14938 24.7093 5.84861C23.9606 5.55765 23.1051 5.35872 21.8524 5.30154C20.5971 5.24426 20.1963 5.23071 17 5.23071ZM17 10.9563C13.6622 10.9563 10.9563 13.6621 10.9563 17C10.9563 20.3378 13.6622 23.0436 17 23.0436C20.3378 23.0436 23.0437 20.3378 23.0437 17C23.0437 13.6621 20.3378 10.9563 17 10.9563ZM17 20.9231C14.8333 20.9231 13.0769 19.1666 13.0769 17C13.0769 14.8333 14.8333 13.0769 17 13.0769C19.1666 13.0769 20.9231 14.8333 20.9231 17C20.9231 19.1666 19.1666 20.9231 17 20.9231ZM24.6947 10.7175C24.6947 11.4975 24.0624 12.1298 23.2824 12.1298C22.5024 12.1298 21.8701 11.4975 21.8701 10.7175C21.8701 9.93751 22.5024 9.30523 23.2824 9.30523C24.0624 9.30523 24.6947 9.93751 24.6947 10.7175Z" fill="#C9E483"/>
</g>
<defs>
<clipPath id="clip0_101_80">
<rect width="23.5385" height="23.5385" fill="white" transform="translate(5.23077 5.23071)"/>
</clipPath>
</defs>
</svg>
