<svg width="26" height="26" viewBox="0 0 26 26" fill="none" xmlns="http://www.w3.org/2000/svg">
<path d="M13 23.8334C18.9831 23.8334 23.8333 18.9831 23.8333 13.0001C23.8333 7.01697 18.9831 2.16675 13 2.16675C7.0169 2.16675 2.16666 7.01697 2.16666 13.0001C2.16666 18.9831 7.0169 23.8334 13 23.8334Z" stroke="black" stroke-width="2"/>
<path d="M3.25 16.784C4.67562 17.3556 5.70191 17.3556 6.32878 16.784C7.26911 15.9264 6.4577 13.3239 7.77465 12.6061C9.09155 11.8884 11.098 15.07 12.9734 14.0231C14.8487 12.9762 12.7967 10.1847 14.0981 9.05297C15.3995 7.92126 17.0918 9.19759 17.3876 7.30528C17.6834 5.41299 16.0074 6.2337 15.6858 4.44551C15.4714 3.2534 15.4714 2.62655 15.6858 2.56494" stroke="black" stroke-width="2" stroke-linecap="round"/>
<path d="M15.7196 23.4815C14.7045 22.4426 14.339 21.4769 14.6233 20.5844C15.0497 19.2456 15.7531 19.3247 16.0598 18.4969C16.3664 17.6691 15.5001 16.4901 17.4223 15.4822C18.7038 14.8103 20.4658 15.5888 22.7082 17.8178" stroke="black" stroke-width="2" stroke-linecap="round"/>
</svg>
