<svg width="26" height="26" viewBox="0 0 26 26" fill="none" xmlns="http://www.w3.org/2000/svg">
<path d="M17.56 8.68986C20.1 8.68986 22 10.3699 22 13.9799V20.7299H18.14V14.4299C18.14 12.8499 17.58 11.7699 16.14 11.7699C15.6974 11.7685 15.2657 11.907 14.9066 12.1656C14.5474 12.4242 14.2791 12.7897 14.14 13.2099C14.0353 13.515 13.9911 13.8377 14.01 14.1599V20.7299H10.22V20.6299C10.22 19.5699 10.22 10.0099 10.22 8.95986H14.08V10.6199C14.4284 10.011 14.937 9.50915 15.5505 9.16891C16.164 8.82866 16.859 8.66298 17.56 8.68986ZM8.09002 8.95986V20.7299H4.23002V8.95986H8.09002ZM6.18002 3.28986C6.4558 3.26772 6.73317 3.30305 6.9946 3.3936C7.25603 3.48415 7.49583 3.62795 7.69884 3.81592C7.90185 4.00389 8.06365 4.23194 8.17402 4.48564C8.28438 4.73935 8.3409 5.01319 8.34002 5.28986C8.34128 5.56928 8.28398 5.84587 8.1718 6.10179C8.05963 6.35772 7.89507 6.5873 7.68874 6.77573C7.4824 6.96416 7.23887 7.10727 6.97385 7.19582C6.70882 7.28437 6.42818 7.3164 6.15002 7.28986C5.87504 7.31054 5.59875 7.27413 5.33851 7.18293C5.07827 7.09172 4.83971 6.94768 4.6378 6.75986C4.43589 6.57204 4.27501 6.3445 4.16525 6.09153C4.0555 5.83855 3.99924 5.56561 4.00002 5.28986C3.99889 5.01135 4.05593 4.73569 4.16751 4.48051C4.27908 4.22533 4.44272 3.99627 4.64794 3.80799C4.85316 3.61971 5.09544 3.47637 5.35927 3.38715C5.62309 3.29793 5.90264 3.26479 6.18002 3.28986Z" fill="black"/>
</svg>
