<svg width="67" height="68" viewBox="0 0 67 68" fill="none" xmlns="http://www.w3.org/2000/svg">
<path d="M60.7895 18.1096H6.21053C4.4374 18.1096 3 19.6129 3 21.4674V61.7602C3 63.6146 4.4374 65.1179 6.21053 65.1179H60.7895C62.5626 65.1179 64 63.6146 64 61.7602V21.4674C64 19.6129 62.5626 18.1096 60.7895 18.1096Z" stroke="#3C7B1E" stroke-width="5.51351"/>
<path d="M23.8684 53.3661C29.1878 53.3661 33.5 48.8562 33.5 43.2929C33.5 37.7297 29.1878 33.2197 23.8684 33.2197C18.549 33.2197 14.2368 37.7297 14.2368 43.2929C14.2368 48.8562 18.549 53.3661 23.8684 53.3661Z" stroke="#3C7B1E" stroke-width="5.51351"/>
<path d="M43.1316 36.5774H52.7632" stroke="#3C7B1E" stroke-width="5.51351" stroke-linecap="round" stroke-linejoin="round"/>
<path d="M43.1316 50.0085H52.7632" stroke="#3C7B1E" stroke-width="5.51351" stroke-linecap="round" stroke-linejoin="round"/>
<path d="M6.21053 18.1098L35.1053 3" stroke="#3C7B1E" stroke-width="5.51351" stroke-linecap="round" stroke-linejoin="round"/>
</svg>
