<svg width="147" height="147" viewBox="0 0 147 147" fill="none" xmlns="http://www.w3.org/2000/svg">
<path d="M73.5 113.312C95.4878 113.312 113.312 95.4878 113.312 73.5C113.312 51.5122 95.4878 33.6875 73.5 33.6875C51.5122 33.6875 33.6875 51.5122 33.6875 73.5C33.6875 95.4878 51.5122 113.312 73.5 113.312Z" stroke="#3C7B1E" stroke-width="12.25" stroke-linejoin="round"/>
<path d="M79.625 10.7188C79.625 14.1015 76.8827 16.8438 73.5 16.8438C70.1173 16.8438 67.375 14.1015 67.375 10.7188C67.375 7.33602 70.1173 4.59375 73.5 4.59375C76.8827 4.59375 79.625 7.33602 79.625 10.7188Z" fill="#3C7B1E" stroke="#3C7B1E" stroke-width="3.0625"/>
<path d="M124.031 29.0938C124.031 32.4765 121.289 35.2188 117.906 35.2188C114.524 35.2188 111.781 32.4765 111.781 29.0938C111.781 25.711 114.524 22.9688 117.906 22.9688C121.289 22.9688 124.031 25.711 124.031 29.0938Z" fill="#3C7B1E" stroke="#3C7B1E" stroke-width="3.0625"/>
<path d="M142.406 73.5C142.406 76.8827 139.664 79.625 136.281 79.625C132.899 79.625 130.156 76.8827 130.156 73.5C130.156 70.1173 132.899 67.375 136.281 67.375C139.664 67.375 142.406 70.1173 142.406 73.5Z" fill="#3C7B1E" stroke="#3C7B1E" stroke-width="3.0625"/>
<path d="M124.031 117.906C124.031 121.289 121.289 124.031 117.906 124.031C114.524 124.031 111.781 121.289 111.781 117.906C111.781 114.524 114.524 111.781 117.906 111.781C121.289 111.781 124.031 114.524 124.031 117.906Z" fill="#3C7B1E" stroke="#3C7B1E" stroke-width="3.0625"/>
<path d="M79.625 136.281C79.625 139.664 76.8827 142.406 73.5 142.406C70.1173 142.406 67.375 139.664 67.375 136.281C67.375 132.899 70.1173 130.156 73.5 130.156C76.8827 130.156 79.625 132.899 79.625 136.281Z" fill="#3C7B1E" stroke="#3C7B1E" stroke-width="3.0625"/>
<path d="M35.2188 117.906C35.2188 121.289 32.4765 124.031 29.0938 124.031C25.711 124.031 22.9688 121.289 22.9688 117.906C22.9688 114.524 25.711 111.781 29.0938 111.781C32.4765 111.781 35.2188 114.524 35.2188 117.906Z" fill="#3C7B1E" stroke="#3C7B1E" stroke-width="3.0625"/>
<path d="M16.8438 73.5C16.8438 76.8827 14.1015 79.625 10.7188 79.625C7.33602 79.625 4.59375 76.8827 4.59375 73.5C4.59375 70.1173 7.33602 67.375 10.7188 67.375C14.1015 67.375 16.8438 70.1173 16.8438 73.5Z" fill="#3C7B1E" stroke="#3C7B1E" stroke-width="3.0625"/>
<path d="M35.2188 29.0938C35.2188 32.4765 32.4765 35.2188 29.0938 35.2188C25.711 35.2188 22.9688 32.4765 22.9688 29.0938C22.9688 25.711 25.711 22.9688 29.0938 22.9688C32.4765 22.9688 35.2188 25.711 35.2188 29.0938Z" fill="#3C7B1E" stroke="#3C7B1E" stroke-width="3.0625"/>
</svg>
