<svg width="26" height="26" viewBox="0 0 26 26" fill="none" xmlns="http://www.w3.org/2000/svg">
<path d="M23 7.29025C22.3279 7.59484 21.6128 7.79385 20.88 7.88025C21.6546 7.40203 22.23 6.65966 22.5 5.79025C21.7788 6.22941 20.9872 6.54065 20.16 6.71025C19.8181 6.33357 19.4014 6.03231 18.9365 5.82569C18.4716 5.61907 17.9687 5.51164 17.46 5.51025C16.9688 5.51678 16.4838 5.61999 16.0325 5.81399C15.5813 6.00799 15.1726 6.28899 14.83 6.64093C14.4873 6.99288 14.2173 7.40887 14.0355 7.86516C13.8536 8.32145 13.7634 8.8091 13.77 9.30025C13.7681 9.58993 13.8017 9.87874 13.87 10.1603C12.3887 10.0728 10.943 9.67079 9.62911 8.98109C8.31524 8.29139 7.16332 7.32979 6.25 6.16025C5.91729 6.75599 5.745 7.42792 5.75 8.11025C5.749 8.72975 5.89867 9.34019 6.18612 9.88895C6.47357 10.4377 6.89017 10.9083 7.4 11.2603C6.81036 11.2409 6.23408 11.0797 5.72 10.7903C5.71363 11.6568 6.00521 12.4993 6.54589 13.1765C7.08658 13.8537 7.84354 14.3246 8.69 14.5103C8.36363 14.5964 8.02753 14.64 7.69 14.6403C7.45959 14.6554 7.22822 14.6454 7 14.6103C7.22502 15.356 7.67965 16.0117 8.29912 16.4839C8.91859 16.9561 9.6713 17.2208 10.45 17.2403C9.15613 18.2859 7.54355 18.8575 5.88 18.8603C5.58686 18.8755 5.29314 18.8755 5 18.8603C6.6856 19.95 8.65286 20.5235 10.66 20.5103C17.45 20.5103 21.17 14.7403 21.17 9.74025C21.17 9.57025 21.17 9.41025 21.17 9.25025C21.8929 8.69341 22.5152 8.01698 23.01 7.25025" fill="black"/>
</svg>
