<svg width="26" height="26" viewBox="0 0 26 26" fill="none" xmlns="http://www.w3.org/2000/svg">
<path d="M5.99284 5.64121C8.9954 5.49155 11.3307 5.41675 12.9989 5.41675C14.6673 5.41675 17.0035 5.49161 20.0075 5.64127C21.6337 5.7223 22.9489 6.99403 23.0845 8.61648C23.2219 10.2599 23.2906 11.7073 23.2906 12.9588C23.2906 14.2257 23.2202 15.6932 23.0794 17.3617C22.9442 18.964 21.6576 20.2266 20.053 20.3315C17.4848 20.4995 15.1334 20.5834 12.9989 20.5834C10.8647 20.5834 8.51424 20.4995 5.94739 20.3316C4.34336 20.2267 3.057 18.9649 2.92114 17.3632C2.77856 15.6823 2.70728 14.2142 2.70728 12.9588C2.70728 11.7186 2.77686 10.2706 2.91603 8.61496C3.05236 6.99316 4.36732 5.72225 5.99284 5.64121Z" stroke="black" stroke-width="2" stroke-linejoin="round"/>
<path d="M11.375 10.6216V15.3865C11.375 15.6429 11.5829 15.8508 11.8393 15.8508C11.9303 15.8508 12.0194 15.824 12.0953 15.7739L15.669 13.4119C15.8829 13.2705 15.9417 12.9824 15.8003 12.7685C15.7665 12.7174 15.7229 12.6735 15.672 12.6392L12.0983 10.2363C11.8856 10.0932 11.5971 10.1497 11.454 10.3625C11.4025 10.4391 11.375 10.5293 11.375 10.6216Z" stroke="black" stroke-linejoin="round"/>
</svg>
